<svg width="130.263672" height="182.368408" viewBox="0 0 130.264 182.368" fill="none" xmlns="http://www.w3.org/2000/svg" xmlns:xlink="http://www.w3.org/1999/xlink">
	<desc>
			Created with Pixso.
	</desc>
	<defs/>
	<path id="Vector" d="M65.13 13.02C58.22 13.02 51.59 15.77 46.7 20.65C41.82 25.54 39.07 32.16 39.07 39.07L39.07 91.18C39.07 98.09 41.82 104.72 46.7 109.6C51.59 114.49 58.22 117.23 65.13 117.23C72.04 117.23 78.66 114.49 83.55 109.6C88.43 104.72 91.18 98.09 91.18 91.18L91.18 39.07C91.18 32.16 88.43 25.54 83.55 20.65C78.66 15.77 72.04 13.02 65.13 13.02ZM65.13 0C75.49 0 85.43 4.11 92.76 11.44C100.09 18.77 104.21 28.71 104.21 39.07L104.21 91.18C104.21 101.54 100.09 111.48 92.76 118.81C85.43 126.14 75.49 130.26 65.13 130.26C54.76 130.26 44.82 126.14 37.49 118.81C30.16 111.48 26.05 101.54 26.05 91.18L26.05 39.07C26.05 28.71 30.16 18.77 37.49 11.44C44.82 4.11 54.76 0 65.13 0ZM58.61 169.34L58.61 156.31C43.07 156.31 28.16 150.14 17.16 139.14C6.17 128.15 0 113.24 0 97.69L0 91.18C0 89.45 0.68 87.8 1.9 86.57C3.12 85.35 4.78 84.67 6.51 84.67C8.24 84.67 9.89 85.35 11.11 86.57C12.33 87.8 13.02 89.45 13.02 91.18L13.02 97.69C13.02 109.78 17.83 121.38 26.38 129.93C34.92 138.48 46.52 143.28 58.61 143.28L71.64 143.28C83.73 143.28 95.33 138.48 103.88 129.93C112.43 121.38 117.23 109.78 117.23 97.69L117.23 91.18C117.23 89.45 117.92 87.8 119.14 86.57C120.36 85.35 122.02 84.67 123.75 84.67C125.47 84.67 127.13 85.35 128.35 86.57C129.57 87.8 130.26 89.45 130.26 91.18L130.26 97.69C130.26 113.24 124.08 128.15 113.09 139.14C102.1 150.14 87.19 156.31 71.64 156.31L71.64 169.34L84.67 169.34C86.39 169.34 88.05 170.02 89.27 171.25C90.49 172.47 91.18 174.12 91.18 175.85C91.18 177.58 90.49 179.23 89.27 180.46C88.05 181.68 86.39 182.36 84.67 182.36L45.59 182.36C43.86 182.36 42.2 181.68 40.98 180.46C39.76 179.23 39.07 177.58 39.07 175.85C39.07 174.12 39.76 172.47 40.98 171.25C42.2 170.02 43.86 169.34 45.59 169.34L58.61 169.34Z" fill="#A71BCA" fill-opacity="1.000000" fill-rule="nonzero"/>
</svg>
