<svg width="426.000000" height="426.000000" viewBox="0 0 426 426" fill="none" xmlns="http://www.w3.org/2000/svg" xmlns:xlink="http://www.w3.org/1999/xlink">
	<desc>
			Created with Pixso.
	</desc>
	<defs>
		<clipPath id="clip2680_30">
			<rect id="ep:microphone" rx="0.000000" width="425.000000" height="425.000000" transform="translate(0.500000 0.500000)" fill="white" fill-opacity="0"/>
		</clipPath>
	</defs>
	<rect id="ep:microphone" rx="0.000000" width="425.000000" height="425.000000" transform="translate(0.500000 0.500000)" fill="#FFFFFF" fill-opacity="0"/>
	<g clip-path="url(#clip2680_30)">
		<path id="Vector" d="M212.5 110.47C203.43 110.47 194.74 114.07 188.33 120.48C181.92 126.89 178.32 135.58 178.32 144.64L178.32 213C178.32 222.06 181.92 230.75 188.33 237.16C194.74 243.57 203.43 247.17 212.5 247.17C221.56 247.17 230.25 243.57 236.66 237.16C243.07 230.75 246.67 222.06 246.67 213L246.67 144.64C246.67 135.58 243.07 126.89 236.66 120.48C230.25 114.07 221.56 110.47 212.5 110.47ZM212.5 93.38C226.09 93.38 239.13 98.78 248.74 108.39C258.36 118.01 263.76 131.05 263.76 144.64L263.76 213C263.76 226.59 258.36 239.63 248.74 249.24C239.13 258.86 226.09 264.26 212.5 264.26C198.9 264.26 185.86 258.86 176.25 249.24C166.63 239.63 161.23 226.59 161.23 213L161.23 144.64C161.23 131.05 166.63 118.01 176.25 108.39C185.86 98.78 198.9 93.38 212.5 93.38ZM203.95 315.52L203.95 298.44C183.56 298.44 164 290.33 149.58 275.91C135.16 261.49 127.06 241.93 127.06 221.54L127.06 213C127.06 210.73 127.96 208.56 129.56 206.95C131.16 205.35 133.33 204.45 135.6 204.45C137.87 204.45 140.04 205.35 141.64 206.95C143.24 208.56 144.14 210.73 144.14 213L144.14 221.54C144.14 237.4 150.44 252.61 161.66 263.83C172.88 275.05 188.09 281.35 203.95 281.35L221.04 281.35C236.9 281.35 252.11 275.05 263.33 263.83C274.55 252.61 280.85 237.4 280.85 221.54L280.85 213C280.85 210.73 281.75 208.56 283.35 206.95C284.95 205.35 287.13 204.45 289.39 204.45C291.66 204.45 293.83 205.35 295.43 206.95C297.04 208.56 297.94 210.73 297.94 213L297.94 221.54C297.94 241.93 289.83 261.49 275.41 275.91C260.99 290.33 241.43 298.44 221.04 298.44L221.04 315.52L238.13 315.52C240.39 315.52 242.57 316.42 244.17 318.03C245.77 319.63 246.67 321.8 246.67 324.07C246.67 326.33 245.77 328.51 244.17 330.11C242.57 331.71 240.39 332.61 238.13 332.61L186.86 332.61C184.6 332.61 182.42 331.71 180.82 330.11C179.22 328.51 178.32 326.33 178.32 324.07C178.32 321.8 179.22 319.63 180.82 318.03C182.42 316.42 184.6 315.52 186.86 315.52L203.95 315.52Z" fill="#413943" fill-opacity="1.000000" fill-rule="nonzero"/>
	</g>
</svg>
