<svg width="112.000000" height="112.000000" viewBox="0 0 112 112" fill="none" xmlns="http://www.w3.org/2000/svg" xmlns:xlink="http://www.w3.org/1999/xlink">
	<desc>
			Created with Pixso.
	</desc>
	<defs>
		<clipPath id="clip2680_20">
			<rect id="grommet-icons:connect" rx="0.000000" width="51.000000" height="51.000000" transform="translate(30.500000 30.500000)" fill="white" fill-opacity="0"/>
		</clipPath>
	</defs>
	<rect id="Frame 1641" rx="24.500000" width="111.000000" height="111.000000" transform="translate(0.500000 0.500000)" fill="#413943" fill-opacity="1.000000"/>
	<rect id="grommet-icons:connect" rx="0.000000" width="51.000000" height="51.000000" transform="translate(30.500000 30.500000)" fill="#FFFFFF" fill-opacity="0"/>
	<g clip-path="url(#clip2680_20)">
		<path id="Vector" d="M36.5 75.5C32.16 71.16 31.08 65.75 36.5 60.33L43 53.83L58.16 69L51.66 75.5C46.25 80.91 40.83 79.83 36.5 75.5ZM75.5 36.5C79.83 40.83 80.91 46.25 75.5 51.66L69 58.16L53.83 43L60.33 36.5C65.75 31.08 71.16 32.16 75.5 36.5ZM53.83 51.66L48.41 57.08M60.33 58.16L54.91 63.58" stroke="#F1EFFA" stroke-opacity="1.000000" stroke-width="5.833333"/>
	</g>
</svg>
