<svg width="90.999756" height="39.000000" viewBox="0 0 90.9998 39" fill="none" xmlns="http://www.w3.org/2000/svg" xmlns:xlink="http://www.w3.org/1999/xlink">
	<desc>
			Created with Pixso.
	</desc>
	<defs/>
	<path id="Rectangle" d="M0 0L31.74 0L31.74 31.57L0 31.57L0 0Z" fill="#1E3DAF" fill-opacity="1.000000" fill-rule="nonzero"/>
	<path id="hi" d="M7.67 21.72L6.22 22.03L6.22 23.83L11.98 23.83L11.98 22.03L10.68 21.72L10.68 15.7C10.89 15.42 11.15 15.21 11.47 15.06C11.78 14.91 12.15 14.84 12.57 14.84Q13.32 14.84 13.76 15.2Q13.85 15.28 13.93 15.38C14.24 15.74 14.4 16.35 14.4 17.21L14.4 21.72L13.1 22.03L13.1 23.83L18.86 23.83L18.86 22.03L17.42 21.72L17.42 17.23C17.42 15.62 17.08 14.43 16.41 13.66Q16.11 13.31 15.74 13.06Q14.89 12.5 13.67 12.5Q13 12.5 12.41 12.73Q12.19 12.81 11.97 12.93C11.46 13.22 11.03 13.61 10.68 14.13L10.68 7.8L6.06 7.8L6.06 9.6L7.67 9.91L7.67 21.72ZM21.2 10.05L24.22 10.05L24.22 7.8L21.2 7.8L21.2 10.05ZM21.2 21.72L19.74 22.03L19.74 23.83L25.66 23.83L25.66 22.03L24.22 21.72L24.22 12.71L19.59 12.71L19.59 14.52L21.2 14.83L21.2 21.72Z" fill="#FFFFFF" fill-opacity="1.000000" fill-rule="evenodd"/>
	<path id="Brain" d="M76.08 10.36L73.07 10.36L73.07 8.11L76.08 8.11L76.08 10.36ZM43.99 9.17Q46.64 9.17 48.13 10.2Q48.66 10.57 49.01 11.07L49.01 11.07Q49.62 11.97 49.62 13.27Q49.62 13.92 49.4 14.49L49.4 14.49Q49.27 14.83 49.06 15.13C48.69 15.68 48.16 16.08 47.46 16.36Q48.56 16.59 49.22 17.27L49.22 17.27L49.22 17.27L49.22 17.27Q49.36 17.42 49.48 17.59Q49.71 17.9 49.86 18.25L49.86 18.25Q50.17 18.95 50.17 19.78Q50.17 21.32 49.43 22.33L49.43 22.33Q49.14 22.72 48.74 23.04Q47.31 24.14 44.7 24.14L37.3 24.14L37.3 22.34L38.9 22.03L38.9 11.29L37.3 10.98L37.3 9.17L43.99 9.17ZM41.92 15.44L44.09 15.44Q45.3 15.44 45.95 14.95C46.38 14.62 46.6 14.14 46.6 13.51Q46.6 12.71 46.21 12.24L46.21 12.24Q46.09 12.09 45.94 11.98Q45.29 11.49 43.99 11.49L41.92 11.49L41.92 15.44ZM51.59 22.34L53.04 22.03L53.04 15.13L51.44 14.83L51.44 13.02L55.85 13.02L55.98 14.64C56.25 14.07 56.58 13.62 57 13.3Q57.25 13.1 57.54 12.98L57.54 12.98L57.54 12.98Q57.95 12.81 58.43 12.81C58.59 12.81 58.76 12.83 58.93 12.85C59.11 12.87 59.26 12.9 59.37 12.94L59.05 15.67L57.81 15.64C57.37 15.64 57.01 15.72 56.72 15.9C56.43 16.07 56.21 16.31 56.06 16.63L56.06 22.03L57.5 22.34L57.5 24.14L51.59 24.14L51.59 22.34ZM66.97 23.57C67.03 23.76 67.1 23.95 67.19 24.14L70.67 24.14L70.67 22.34L69.75 22.22C69.73 22.08 69.71 21.93 69.71 21.78L69.71 16.71Q69.71 15.47 69.14 14.61L69.14 14.61Q68.85 14.17 68.4 13.83Q68.39 13.82 68.37 13.8Q67.09 12.81 65.04 12.81C64.2 12.81 63.42 12.94 62.7 13.19C61.99 13.45 61.36 13.76 60.81 14.13L60.8 16.59L63.07 16.59L63.27 15.4C63.43 15.29 63.65 15.2 63.92 15.12C64.19 15.04 64.5 15 64.84 15C65.45 15 65.9 15.15 66.21 15.44Q66.29 15.52 66.36 15.6Q66.68 16.02 66.68 16.69L66.68 17.78L65.14 17.78Q62.7 17.78 61.44 18.63C60.6 19.2 60.18 20 60.18 21.04Q60.18 22.17 60.7 22.95Q60.88 23.23 61.14 23.47C61.79 24.06 62.66 24.35 63.75 24.35C64.42 24.35 65 24.23 65.51 23.97Q66.16 23.65 66.65 23.17L66.65 23.17Q66.74 23.08 66.82 22.98C66.86 23.18 66.91 23.37 66.97 23.57ZM79.8 22.03L78.36 22.34L78.36 24.14L84.04 24.14L84.04 22.34L82.82 22.03L82.82 16.07C83.03 15.78 83.3 15.55 83.62 15.39C83.93 15.23 84.29 15.15 84.69 15.15Q85.59 15.15 86.04 15.59Q86.05 15.61 86.07 15.62C86.37 15.93 86.52 16.45 86.52 17.2L86.52 22.03L85.23 22.34L85.23 24.14L90.99 24.14L90.99 22.34L89.55 22.03L89.55 17.19Q89.55 14.93 88.6 13.87Q88.36 13.61 88.08 13.41Q87.23 12.81 85.95 12.81C85.28 12.81 84.67 12.97 84.12 13.29C83.58 13.6 83.12 14.04 82.75 14.61L82.61 13.02L78.2 13.02L78.2 14.83L79.8 15.13L79.8 22.03ZM71.61 22.34L73.07 22.03L73.07 15.13L71.45 14.83L71.45 13.02L76.08 13.02L76.08 22.03L77.53 22.34L77.53 24.14L71.61 24.14L71.61 22.34ZM41.92 17.52L41.92 21.84L44.7 21.84Q45.9 21.84 46.53 21.32Q46.66 21.21 46.77 21.07L46.77 21.07L46.77 21.07Q47.16 20.58 47.16 19.78Q47.16 18.68 46.62 18.11Q46.62 18.1 46.62 18.1Q46.61 18.1 46.61 18.1Q46.61 18.09 46.61 18.09L46.61 18.09Q46.07 17.52 44.93 17.52L41.92 17.52ZM65.81 21.85C65.44 22.04 65.03 22.13 64.57 22.13C64.14 22.13 63.8 22.03 63.55 21.82C63.31 21.6 63.19 21.31 63.19 20.93C63.19 20.51 63.35 20.16 63.68 19.86C64.01 19.56 64.5 19.41 65.14 19.41L66.68 19.41L66.68 21.11C66.47 21.4 66.18 21.65 65.81 21.85Z" fill="#FFFFFF" fill-opacity="1.000000" fill-rule="evenodd"/>
	<path id="Rectangle 2" d="M0 39L0 31.57L7.46 31.57L0 39Z" fill="#1E3DAF" fill-opacity="1.000000" fill-rule="nonzero"/>
</svg>
