<svg width="40.000000" height="40.000015" viewBox="0 0 40 40" fill="none" xmlns="http://www.w3.org/2000/svg" xmlns:xlink="http://www.w3.org/1999/xlink">
	<desc>
			Created with Pixso.
	</desc>
	<defs/>
	<path id="Vector" d="M20 0C16.04 0 12.17 1.17 8.88 3.37C5.59 5.56 3.03 8.69 1.52 12.34C0 16 -0.39 20.02 0.38 23.9C1.15 27.78 3.06 31.34 5.85 34.14C8.65 36.93 12.21 38.84 16.09 39.61C19.97 40.38 23.99 39.99 27.65 38.47C31.3 36.96 34.43 34.4 36.62 31.11C38.82 27.82 40 23.95 40 20C40 17.37 39.48 14.77 38.47 12.34C37.47 9.91 35.99 7.71 34.14 5.85C32.28 4 30.08 2.52 27.65 1.52C25.22 0.51 22.62 0 20 0ZM26.36 30.3C26.28 30.49 26.17 30.65 26.02 30.79C25.88 30.93 25.7 31.04 25.51 31.11C25.32 31.17 25.12 31.2 24.92 31.18C24.72 31.16 24.53 31.1 24.35 31L18.92 26.78L15.44 30C15.36 30.06 15.26 30.1 15.16 30.11C15.06 30.12 14.96 30.11 14.87 30.08L15.54 24.1L15.56 24.12L15.57 24C15.57 24 25.34 15.1 25.74 14.73C26.14 14.35 26.01 14.27 26.01 14.27C26.03 13.81 25.29 14.27 25.29 14.27L12.34 22.59L6.95 20.76C6.95 20.76 6.12 20.46 6.04 19.81C5.96 19.16 6.97 18.81 6.97 18.81L28.41 10.29C28.41 10.29 30.17 9.51 30.17 10.81L26.36 30.3Z" fill="#F1EFFA" fill-opacity="1.000000" fill-rule="nonzero"/>
</svg>
