<svg width="48.000000" height="48.000000" viewBox="0 0 48 48" fill="none" xmlns="http://www.w3.org/2000/svg" xmlns:xlink="http://www.w3.org/1999/xlink">
	<desc>
			Created with Pixso.
	</desc>
	<defs>
		<clipPath id="clip2680_45">
			<rect id="uil:vk" rx="0.000000" width="47.000000" height="47.000000" transform="translate(0.500000 0.500000)" fill="white" fill-opacity="0"/>
		</clipPath>
	</defs>
	<rect id="uil:vk" rx="0.000000" width="47.000000" height="47.000000" transform="translate(0.500000 0.500000)" fill="#FFFFFF" fill-opacity="0"/>
	<g clip-path="url(#clip2680_45)">
		<path id="Vector" d="M30.14 4L17.87 4C6.66 4 4 6.66 4 17.85L4 30.12C4 41.33 6.64 44 17.85 44L30.12 44C41.33 44 44 41.35 44 30.14L44 17.87C44 6.66 41.35 4 30.14 4ZM36.29 32.54L33.37 32.54C32.27 32.54 31.93 31.64 29.95 29.66C28.23 28 27.5 27.79 27.06 27.79C26.45 27.79 26.29 27.95 26.29 28.79L26.29 31.41C26.29 32.12 26.06 32.54 24.2 32.54C22.4 32.41 20.66 31.87 19.11 30.94C17.57 30.01 16.26 28.73 15.31 27.2C13.04 24.38 11.46 21.07 10.7 17.54C10.7 17.1 10.87 16.7 11.7 16.7L14.62 16.7C15.37 16.7 15.64 17.04 15.93 17.81C17.35 21.98 19.77 25.6 20.75 25.6C21.12 25.6 21.29 25.43 21.29 24.5L21.29 20.2C21.16 18.25 20.12 18.08 20.12 17.37C20.13 17.18 20.22 17.01 20.36 16.89C20.5 16.76 20.68 16.7 20.87 16.7L25.45 16.7C26.08 16.7 26.29 17.02 26.29 17.77L26.29 23.56C26.29 24.18 26.56 24.39 26.75 24.39C27.12 24.39 27.41 24.18 28.1 23.5C29.58 21.69 30.78 19.69 31.68 17.54C31.78 17.28 31.95 17.06 32.18 16.91C32.41 16.76 32.68 16.68 32.95 16.7L35.87 16.7C36.75 16.7 36.93 17.14 36.75 17.77C35.68 20.14 34.37 22.4 32.83 24.5C32.52 24.98 32.39 25.23 32.83 25.79C33.12 26.23 34.14 27.08 34.83 27.89C35.83 28.89 36.66 30.04 37.29 31.31C37.54 32.12 37.12 32.54 36.29 32.54Z" fill="#F1EFFA" fill-opacity="1.000000" fill-rule="nonzero"/>
	</g>
</svg>
